<?xml version="1.0" standalone="no"?>
<!DOCTYPE svg PUBLIC "-//W3C//DTD SVG 20010904//EN"
 "http://www.w3.org/TR/2001/REC-SVG-20010904/DTD/svg10.dtd">
<svg version="1.0" xmlns="http://www.w3.org/2000/svg"
 width="1361.000000pt" height="850.000000pt" viewBox="0 0 1361.000000 850.000000"
 preserveAspectRatio="xMidYMid meet">

<g transform="translate(0.000000,850.000000) scale(0.100000,-0.100000)"
fill="#000000" stroke="none">
<path d="M0 4250 l0 -4250 6805 0 6805 0 0 4250 0 4250 -6805 0 -6805 0 0
-4250z m5651 458 l224 -233 -232 224 c-128 123 -233 227 -233 232 0 5 4 9 9 9
5 0 109 -105 232 -232z m-202 120 c64 -56 123 -109 131 -118 8 -9 68 -63 133
-120 64 -57 117 -105 117 -107 0 -3 -17 10 -39 29 -21 18 -76 65 -122 105 -46
40 -146 125 -221 188 -76 64 -138 118 -138 121 0 17 38 -9 139 -98z m171 -9
c52 -62 99 -119 104 -127 20 -34 -32 15 -104 98 -40 47 -85 97 -99 113 -17 19
-20 27 -10 27 8 0 57 -50 109 -111z m-240 -19 c78 -57 136 -106 130 -108 -6
-2 -72 42 -148 98 -157 118 -164 123 -140 118 10 -1 81 -50 158 -108z m319 1
c77 -102 94 -130 71 -116 -10 6 -170 213 -170 220 0 20 30 -11 99 -104z m-412
-17 c145 -93 200 -134 160 -121 -10 4 -81 48 -158 98 -78 49 -147 93 -155 96
-16 6 -19 23 -5 23 5 0 76 -43 158 -96z m491 -14 c65 -100 114 -190 82 -150
-11 14 -25 30 -30 37 -19 22 -140 212 -140 219 0 17 38 -29 88 -106z m-511
-54 c112 -61 158 -93 121 -84 -33 8 -357 192 -352 200 3 5 29 -5 57 -21 29
-16 107 -59 174 -95z m587 4 c51 -95 82 -160 72 -150 -33 33 -155 255 -136
248 7 -2 36 -46 64 -98z m1016 -60 c28 0 30 -2 30 -40 0 -38 -2 -40 -30 -40
l-31 0 3 -72 c3 -71 4 -73 31 -76 24 -3 27 -7 27 -43 l0 -39 -50 0 c-37 0 -55
5 -70 20 -18 18 -20 33 -20 187 l0 167 38 39 37 38 3 -70 3 -71 29 0z m1380 0
c28 0 30 -2 30 -40 0 -38 -2 -40 -30 -40 l-31 0 3 -72 c3 -71 4 -73 31 -76 24
-3 27 -7 27 -43 l0 -39 -47 0 c-86 0 -93 16 -93 216 l0 158 38 39 37 38 3 -70
3 -71 29 0z m-3101 36 c174 -80 221 -106 193 -106 -22 0 -391 174 -386 182 7
11 -14 19 193 -76z m2916 64 c15 -17 16 -24 7 -45 -20 -43 -82 -28 -82 20 0
45 44 59 75 25z m-2146 -91 c23 -49 40 -96 38 -102 -2 -7 -25 31 -50 85 -50
102 -52 108 -38 108 4 0 27 -41 50 -91z m771 21 l0 -41 -142 3 -143 3 -3 38
-3 37 145 0 146 0 0 -40z m-1604 -51 c203 -76 231 -88 202 -89 -29 0 -408 142
-402 152 7 11 -12 17 200 -63z m879 0 c4 -16 12 -29 19 -29 27 0 107 -213 105
-283 l-1 -42 -9 35 c-5 19 -11 42 -13 50 -3 8 -5 22 -5 30 -1 13 -2 13 -12 0
-8 -12 -9 -11 -4 6 6 23 -16 84 -40 108 -16 15 -75 149 -75 169 0 20 29 -16
35 -44z m-414 24 c13 -16 12 -17 -3 -4 -10 7 -18 15 -18 17 0 8 8 3 21 -13z
m-5 -54 c3 -5 -11 0 -30 12 -20 12 -39 25 -42 30 -3 5 11 0 30 -12 20 -12 39
-25 42 -30z m265 34 c13 -16 12 -17 -3 -4 -10 7 -18 15 -18 17 0 8 8 3 21 -13z
m1372 2 c44 -18 84 -66 93 -110 11 -62 7 -64 -123 -67 l-118 -3 22 -22 c32
-32 69 -39 110 -19 33 16 37 16 54 0 18 -16 18 -18 2 -36 -9 -10 -33 -23 -54
-29 -142 -43 -257 129 -162 242 47 56 110 72 176 44z m247 -1 c0 -14 2 -14 22
0 12 9 37 16 55 16 32 0 33 -1 33 -40 0 -38 -2 -40 -30 -40 -19 0 -40 -9 -55
-25 -23 -22 -25 -32 -25 -115 l0 -90 -40 0 -40 0 0 155 0 155 40 0 c30 0 40
-4 40 -16z m261 -1 c1 -10 0 -25 -1 -33 -1 -9 10 -4 29 14 25 24 40 30 82 30
46 1 54 -2 85 -36 l34 -38 0 -115 0 -115 -40 0 -40 0 0 90 c0 83 -2 93 -25
115 -27 28 -42 30 -80 13 -30 -13 -47 -67 -44 -136 3 -84 3 -84 -38 -80 l-38
3 -3 140 c-1 76 0 145 2 152 3 7 21 13 41 13 26 0 35 -4 36 -17z m754 -98 c49
-124 38 -127 99 25 l33 85 42 3 c22 2 41 0 41 -4 0 -11 -162 -387 -173 -401
-5 -7 -27 -13 -49 -13 -34 0 -39 3 -33 18 4 9 15 35 23 58 l16 41 -62 142
c-34 78 -62 146 -62 152 0 6 17 9 41 7 l40 -3 44 -110z m-2772 26 c7 -8 -14 5
-45 28 -32 24 -58 45 -58 48 0 7 89 -59 103 -76z m113 47 l29 -33 -32 29 c-31
28 -38 36 -30 36 2 0 16 -15 33 -32z m2284 -119 l0 -150 -37 3 -38 3 -3 134
c-1 74 0 141 2 148 3 7 21 13 41 13 l35 0 0 -151z m-3025 72 c109 -32 201 -64
203 -71 3 -8 -2 -10 -14 -6 -11 3 -104 31 -209 61 -171 51 -236 76 -194 75 7
-1 104 -27 214 -59z m445 13 c0 -2 -9 0 -20 6 -11 6 -20 13 -20 16 0 2 9 0 20
-6 11 -6 20 -13 20 -16z m146 -35 c3 -6 -5 -3 -20 6 -14 10 -26 19 -26 22 0 7
39 -17 46 -28z m264 -25 c18 -26 29 -45 24 -42 -5 4 -25 28 -44 54 -18 26 -29
45 -24 42 5 -4 25 -28 44 -54z m738 19 l-3 -38 -77 -3 -77 -3 2 -34 2 -35 103
0 102 0 0 -40 0 -41 -142 3 -143 3 -3 113 -3 112 121 0 121 0 -3 -37z m-927 0
c13 -16 12 -17 -3 -4 -10 7 -18 15 -18 17 0 8 8 3 21 -13z m144 -3 c10 -11 16
-20 13 -20 -3 0 -13 9 -23 20 -10 11 -16 20 -13 20 3 0 13 -9 23 -20z m94 -10
c11 -24 11 -24 -3 -6 -9 11 -16 24 -16 30 0 12 5 7 19 -24z m-874 -45 c120
-26 156 -38 144 -49 -8 -8 -433 89 -436 101 -3 8 21 6 79 -7 46 -10 142 -30
213 -45z m716 -1 c9 -11 2 -9 -18 6 -18 13 -33 25 -33 27 0 8 38 -17 51 -33z
m159 6 c6 -11 8 -20 6 -20 -3 0 -10 9 -16 20 -6 11 -8 20 -6 20 3 0 10 -9 16
-20z m-961 -70 c199 -30 220 -34 209 -45 -7 -8 -441 56 -452 66 -16 14 27 11
243 -21z m14 -81 c97 -7 177 -16 177 -21 0 -13 -114 -8 -457 22 -2 0 -3 5 -3
11 0 8 17 9 53 5 28 -3 132 -11 230 -17z m344 -35 c-3 -3 -12 -4 -19 -1 -8 3
-5 6 6 6 11 1 17 -2 13 -5z m140 -10 c-3 -3 -12 -4 -19 -1 -8 3 -5 6 6 6 11 1
17 -2 13 -5z m130 -10 c-3 -3 -12 -4 -19 -1 -8 3 -5 6 6 6 11 1 17 -2 13 -5z
m480 -46 c-3 -7 -5 -2 -5 12 0 14 2 19 5 13 2 -7 2 -19 0 -25z m-917 12 c0 -6
-83 -10 -230 -10 -147 0 -230 4 -230 10 0 6 83 10 230 10 147 0 230 -4 230
-10z m2460 -160 c28 0 30 -2 30 -40 0 -38 -2 -40 -30 -40 l-30 0 0 -69 c0 -69
0 -70 28 -73 24 -3 27 -7 27 -43 l0 -40 -49 1 c-81 1 -86 13 -86 212 l0 166
38 39 37 38 3 -75 3 -76 29 0z m-2023 124 c-3 -3 -12 -4 -19 -1 -8 3 -5 6 6 6
11 1 17 -2 13 -5z m-130 -10 c-3 -3 -12 -4 -19 -1 -8 3 -5 6 6 6 11 1 17 -2
13 -5z m-134 -11 c-7 -2 -19 -2 -25 0 -7 3 -2 5 12 5 14 0 19 -2 13 -5z m735
-53 c-16 -91 -86 -259 -99 -238 -4 6 -12 -6 -20 -30 -7 -23 -18 -47 -26 -53
-17 -15 -17 0 3 46 8 20 14 39 12 41 -2 2 -21 -35 -42 -81 -21 -47 -42 -85
-47 -85 -14 0 -12 6 37 107 29 60 49 92 53 84 6 -8 12 -2 20 18 7 16 20 32 28
35 9 4 13 14 10 26 -3 11 -2 18 3 15 9 -6 35 55 51 122 16 66 29 60 17 -7z
m-908 40 c0 -5 -15 -10 -32 -10 -18 0 -120 -7 -227 -15 -107 -8 -197 -12 -200
-10 -12 12 18 18 166 30 204 16 293 18 293 5z m1324 -22 c27 -88 90 -257 95
-254 3 2 26 63 51 135 l45 131 44 0 c43 0 43 -1 38 -29 -11 -54 -128 -336
-144 -348 -9 -7 -30 -13 -46 -13 -25 0 -32 7 -62 73 -36 78 -100 245 -111 290
-6 27 -5 27 40 27 29 0 48 -5 50 -12z m-1304 -38 c0 -5 -3 -10 -7 -10 -5 0
-98 -14 -208 -30 -207 -31 -254 -35 -241 -22 6 6 387 68 439 71 9 1 17 -3 17
-9z m410 -14 c0 -2 -7 -7 -16 -10 -8 -3 -12 -2 -9 4 6 10 25 14 25 6z m70 -16
c-8 -5 -19 -10 -25 -10 -5 0 -3 5 5 10 8 5 20 10 25 10 6 0 3 -5 -5 -10z
m1330 -19 c39 -21 80 -89 80 -133 l0 -28 -120 0 c-67 0 -120 -4 -120 -9 0 -5
12 -19 26 -30 31 -24 81 -27 110 -6 19 13 23 12 44 -10 l22 -24 -33 -20 c-80
-49 -178 -20 -219 65 -64 130 81 265 210 195z m221 -3 c1 -13 1 -27 0 -33 -1
-5 4 -3 11 5 41 50 103 63 158 35 49 -25 60 -60 60 -185 l0 -111 -37 3 -38 3
-5 98 c-4 83 -8 101 -24 113 -27 20 -69 18 -97 -5 -20 -16 -23 -29 -27 -115
l-4 -96 -37 3 -36 2 -2 140 c-1 77 0 146 2 153 2 6 20 12 40 12 29 0 35 -4 36
-22z m589 -59 c0 -109 16 -139 77 -139 54 0 73 36 73 136 l0 84 40 0 41 0 -3
-152 -3 -153 -35 0 c-31 0 -35 3 -38 28 l-3 28 -30 -26 c-41 -34 -102 -37
-147 -7 -39 25 -52 71 -52 182 l0 100 40 0 40 0 0 -81z m380 71 c0 -7 6 -7 19
0 11 5 31 10 45 10 24 0 26 -4 26 -40 0 -36 -2 -40 -25 -40 -44 0 -59 -31 -65
-133 l-5 -92 -35 0 -35 0 -3 153 -3 152 41 0 c22 0 40 -5 40 -10z m350 -8 c46
-23 80 -75 80 -123 l0 -39 -115 0 c-94 0 -115 -3 -115 -14 0 -40 94 -61 137
-31 18 13 22 12 38 -5 17 -19 17 -21 1 -39 -39 -43 -147 -42 -194 2 -104 97
-41 267 98 267 19 0 51 -8 70 -18z m314 12 c16 -6 21 -41 8 -59 -4 -6 -29 -10
-57 -10 -64 0 -67 -21 -6 -45 52 -20 91 -61 91 -96 0 -37 -50 -84 -92 -86 -89
-5 -138 6 -138 31 0 44 8 49 76 43 53 -4 64 -2 64 11 0 8 -18 22 -42 32 -77
30 -105 71 -87 125 6 17 23 37 38 45 26 14 116 20 145 9z m-3646 -26 c-2 -6
-93 -31 -203 -55 -109 -23 -207 -45 -218 -49 -14 -4 -18 -2 -15 7 3 9 80 31
214 60 247 55 227 52 222 37z m49 6 c-3 -3 -12 -4 -19 -1 -8 3 -5 6 6 6 11 1
17 -2 13 -5z m278 -24 c-3 -5 -12 -10 -18 -10 -7 0 -6 4 3 10 19 12 23 12 15
0z m185 5 c0 -2 -10 -9 -22 -15 -22 -11 -22 -10 -4 4 21 17 26 19 26 11z m40
-10 c0 -2 -10 -9 -22 -15 -22 -11 -22 -10 -4 4 21 17 26 19 26 11z m20 -19 c0
-2 -17 -16 -37 -31 l-38 -26 35 30 c34 31 40 35 40 27z m40 1 c0 -2 -12 -14
-27 -28 l-28 -24 24 28 c23 25 31 32 31 24z m-180 -227 c-122 -126 -230 -230
-239 -230 -13 1 443 458 458 460 2 0 -97 -103 -219 -230z m244 215 c-4 -8 -11
-15 -16 -15 -6 0 -5 6 2 15 7 8 14 15 16 15 2 0 1 -7 -2 -15z m16 -15 c-11
-16 -26 -33 -32 -36 -7 -4 1 9 16 29 34 44 46 50 16 7z m-660 6 c-35 -19 -411
-128 -418 -121 -3 3 -3 7 -1 9 8 8 404 125 424 125 17 0 17 -2 -5 -13z m684
-14 c-9 -16 -25 -39 -36 -53 l-20 -24 16 28 c28 48 48 77 53 77 2 0 -3 -13
-13 -28z m-74 -15 c0 -2 -12 -14 -27 -28 l-28 -24 24 28 c23 25 31 32 31 24z
m73 -32 c-9 -19 -18 -33 -21 -31 -4 5 26 66 33 66 3 0 -3 -16 -12 -35z m-628
12 c-33 -22 -415 -161 -422 -154 -3 4 -4 9 -2 11 6 5 380 144 404 149 36 8 40
7 20 -6z m145 8 c0 -2 -10 -9 -22 -15 -22 -11 -22 -10 -4 4 21 17 26 19 26 11z
m310 2 c0 -2 -15 -16 -32 -33 l-33 -29 29 33 c28 30 36 37 36 29z m-145 -23
c-26 -20 -55 -36 -55 -30 0 5 63 46 70 46 3 -1 -4 -8 -15 -16z m55 -7 c0 -2
-15 -13 -32 -26 l-33 -22 28 25 c26 24 37 31 37 23z m-180 -12 c0 -2 -13 -11
-30 -20 -38 -19 -40 -11 -2 9 31 17 32 18 32 11z m-147 -16 c-19 -19 -377
-178 -387 -171 -5 3 4 12 20 19 16 7 101 47 189 88 153 71 203 89 178 64z
m507 8 c0 -2 -10 -12 -22 -23 l-23 -19 19 23 c18 21 26 27 26 19z m-190 -44
c-59 -50 -76 -57 -25 -10 28 25 52 43 54 41 2 -2 -11 -16 -29 -31z m140 34 c0
-2 -15 -16 -32 -33 l-33 -29 29 33 c28 30 36 37 36 29z m59 -108 c-55 -101
-69 -122 -77 -115 -5 6 84 173 106 199 32 36 21 6 -29 -84z m-459 74 c0 -9
-344 -197 -354 -195 -18 5 8 23 161 107 162 90 193 104 193 88z m61 -30 c-49
-39 -321 -213 -332 -213 -5 0 -9 3 -9 8 1 11 352 232 370 232 3 0 -10 -12 -29
-27z m349 23 c0 -2 -8 -10 -17 -17 -16 -13 -17 -12 -4 4 13 16 21 21 21 13z
m-250 -10 c0 -2 -8 -10 -17 -17 -16 -13 -17 -12 -4 4 13 16 21 21 21 13z m279
-17 c-6 -12 -36 -60 -67 -108 -52 -81 -72 -104 -80 -97 -4 5 128 209 142 218
17 12 18 10 5 -13z m-113 -21 c-42 -59 -202 -238 -214 -238 -19 0 204 257 226
260 2 0 -4 -10 -12 -22z m-26 -108 c-70 -94 -100 -126 -100 -105 0 4 122 167
156 208 9 11 18 16 21 13 3 -3 -31 -55 -77 -116z m-185 101 c-32 -31 -282
-211 -294 -211 -19 0 -25 -6 135 115 76 57 146 105 154 105 9 0 10 -3 5 -9z
m63 -10 c-6 -18 -249 -222 -260 -219 -6 2 47 54 118 116 120 103 151 126 142
103z"/>
<path d="M7068 4570 l-33 -29 87 -1 c72 0 86 3 82 14 -6 16 -63 46 -88 46 -9
0 -30 -13 -48 -30z"/>
<path d="M6872 4003 l-27 -28 84 -3 c46 -2 86 0 90 3 3 4 -7 18 -22 31 -39 34
-90 32 -125 -3z"/>
<path d="M8426 4009 c-14 -11 -26 -25 -26 -30 0 -5 39 -9 88 -9 l87 1 -33 29
c-39 36 -78 39 -116 9z"/>
</g>
</svg>
