<?xml version="1.0" encoding="utf-8"?>
<!-- Generator: Adobe Illustrator 26.0.0, SVG Export Plug-In . SVG Version: 6.00 Build 0)  -->
<svg version="1.1" id="图层_1" xmlns="http://www.w3.org/2000/svg" xmlns:xlink="http://www.w3.org/1999/xlink" x="0px" y="0px"
	 viewBox="0 0 442.1 145.5" style="enable-background:new 0 0 442.1 145.5;" xml:space="preserve">
<style type="text/css">
	.st0{clip-path:url(#SVGID_00000150070356403406607540000004617727013018203284_);}
	.st1{fill:#FFFFFF;}
	.st2{clip-path:url(#SVGID_00000057138297389303930470000013518170402769604783_);}
	.st3{fill-rule:evenodd;clip-rule:evenodd;fill:#FFFFFF;}
	.st4{fill:#FFA300;}
</style>
<g id="图层_2_00000178178575558687343590000002398084381888910007_">
	<g id="图层_1-2">
		<g>
			<defs>
				<path id="SVGID_1_" d="M0,72.8c0,40.2,32.6,72.8,72.8,72.8s72.8-32.6,72.8-72.8c0,26.8-21.7,48.5-48.5,48.5S48.5,99.5,48.5,72.8
					S70.2,24.2,97,24.2c26.8,0,48.5,21.7,48.5,48.5c0,0,0,0,0,0C145.5,32.6,112.9,0,72.8,0S0,32.6,0,72.8z"/>
			</defs>
			<clipPath id="SVGID_00000119080107431855049600000017496810322053461949_">
				<use xlink:href="#SVGID_1_"  style="overflow:visible;"/>
			</clipPath>
			<g style="clip-path:url(#SVGID_00000119080107431855049600000017496810322053461949_);">
				<rect x="146.3" y="71.9" class="st1" width="161.7" height="1.6"/>
				
					<rect x="146.1" y="66.2" transform="matrix(0.9975 -7.132336e-02 7.132336e-02 0.9975 -4.2003 16.3564)" class="st1" width="161.7" height="1.6"/>
				<rect x="145.4" y="61" transform="matrix(0.9901 -0.14 0.14 0.9901 -6.4221 32.2851)" class="st1" width="161.6" height="1.6"/>
				
					<rect x="144.5" y="54.8" transform="matrix(0.9772 -0.2125 0.2125 0.9772 -6.6656 49.1498)" class="st1" width="161.7" height="1.6"/>
				
					<rect x="143" y="49.2" transform="matrix(0.9595 -0.2817 0.2817 0.9595 -5.0165 65.0816)" class="st1" width="161.7" height="1.6"/>
				
					<rect x="141.2" y="43.7" transform="matrix(0.937 -0.3494 0.3494 0.937 -1.5591 80.3871)" class="st1" width="161.7" height="1.6"/>
				
					<rect x="139" y="38.3" transform="matrix(0.9096 -0.4155 0.4155 0.9096 3.606 94.8743)" class="st1" width="161.7" height="1.6"/>
				
					<rect x="136.4" y="33.2" transform="matrix(0.8776 -0.4793 0.4793 0.8776 10.285 108.286)" class="st1" width="161.7" height="1.6"/>
				
					<rect x="133.5" y="28.2" transform="matrix(0.8412 -0.5407 0.5407 0.8412 18.3287 120.4798)" class="st1" width="161.7" height="1.6"/>
				
					<rect x="130.2" y="23.5" transform="matrix(0.8005 -0.5993 0.5993 0.8005 27.5349 131.3103)" class="st1" width="161.7" height="1.6"/>
				
					<rect x="126.6" y="19" transform="matrix(0.7557 -0.6549 0.6549 0.7557 37.6848 140.6572)" class="st1" width="161.7" height="1.6"/>
				
					<rect x="122.6" y="14.8" transform="matrix(0.7071 -0.7071 0.7071 0.7071 48.5682 148.4386)" class="st1" width="161.7" height="1.6"/>
				
					<rect x="118.4" y="10.8" transform="matrix(0.6549 -0.7557 0.7557 0.6549 59.953 154.5987)" class="st1" width="161.7" height="1.6"/>
				
					<rect x="113.9" y="7.2" transform="matrix(0.5993 -0.8005 0.8005 0.5993 71.6068 159.1232)" class="st1" width="161.7" height="1.6"/>
				
					<rect x="109.2" y="4.2" transform="matrix(0.5408 -0.8412 0.8412 0.5408 83.022 162.0133)" class="st1" width="161.4" height="1.6"/>
				
					<rect x="104.2" y="1" transform="matrix(0.4793 -0.8776 0.8776 0.4793 94.7694 163.363)" class="st1" width="161.7" height="1.6"/>
				
					<rect x="99.1" y="-1.6" transform="matrix(0.4155 -0.9096 0.9096 0.4155 105.8611 163.1829)" class="st1" width="161.7" height="1.6"/>
				
					<rect x="93.6" y="-4.3" transform="matrix(0.3489 -0.9371 0.9371 0.3489 117.0039 161.3602)" class="st1" width="162.2" height="1.6"/>
				
					<rect x="88.2" y="-5.6" transform="matrix(0.2817 -0.9595 0.9595 0.2817 126.0675 158.7678)" class="st1" width="161.7" height="1.6"/>
				
					<rect x="82.7" y="-7.1" transform="matrix(0.2125 -0.9772 0.9772 0.2125 134.8454 154.8363)" class="st1" width="161.7" height="1.6"/>
				
					<rect x="77" y="-8.1" transform="matrix(0.1423 -0.9898 0.9898 0.1423 142.5433 149.9737)" class="st1" width="161.7" height="1.6"/>
				
					<rect x="70.8" y="-9.1" transform="matrix(6.982913e-02 -0.9976 0.9976 6.982913e-02 149.4785 143.7945)" class="st1" width="162.1" height="1.6"/>
				<rect x="145.5" y="-88.9" class="st1" width="1.6" height="161.7"/>
				
					<rect x="139.7" y="-88.7" transform="matrix(0.9975 -7.132336e-02 7.132336e-02 0.9975 0.9199 10.0037)" class="st1" width="1.6" height="161.7"/>
				
					<rect x="134" y="-88.1" transform="matrix(0.9898 -0.1423 0.1423 0.9898 2.4034 19.1069)" class="st1" width="1.6" height="161.7"/>
				
					<rect x="128.3" y="-87.1" transform="matrix(0.9772 -0.2125 0.2125 0.9772 4.2747 27.2991)" class="st1" width="1.6" height="161.7"/>
				
					<rect x="122.7" y="-85.6" transform="matrix(0.9595 -0.2817 0.2817 0.9595 6.3537 34.6047)" class="st1" width="1.6" height="161.7"/>
				
					<rect x="117.3" y="-83.8" transform="matrix(0.937 -0.3494 0.3494 0.937 8.4806 41.0637)" class="st1" width="1.6" height="161.7"/>
				
					<rect x="111.9" y="-81.6" transform="matrix(0.9097 -0.4153 0.4153 0.9097 10.5051 46.7522)" class="st1" width="1.6" height="161.7"/>
				
					<rect x="106.8" y="-79" transform="matrix(0.8776 -0.4793 0.4793 0.8776 12.3001 51.7755)" class="st1" width="1.6" height="161.7"/>
				
					<rect x="101.8" y="-76.1" transform="matrix(0.8412 -0.5407 0.5407 0.8412 13.7283 56.2316)" class="st1" width="1.6" height="161.7"/>
				
					<rect x="97.1" y="-72.8" transform="matrix(0.8005 -0.5993 0.5993 0.8005 14.7063 60.256)" class="st1" width="1.6" height="161.7"/>
				
					<rect x="92.6" y="-69.2" transform="matrix(0.7557 -0.6549 0.6549 0.7557 15.1774 63.9986)" class="st1" width="1.6" height="161.7"/>
				
					<rect x="88.3" y="-65.2" transform="matrix(0.7071 -0.7071 0.7071 0.7071 15.0832 67.6115)" class="st1" width="1.6" height="161.7"/>
				
					<rect x="84.4" y="-61" transform="matrix(0.6549 -0.7557 0.7557 0.6549 14.44 71.2443)" class="st1" width="1.6" height="161.7"/>
				
					<rect x="80.8" y="-56.5" transform="matrix(0.5993 -0.8005 0.8005 0.5993 13.2358 75.0616)" class="st1" width="1.6" height="161.7"/>
				
					<rect x="77.5" y="-51.8" transform="matrix(0.5405 -0.8413 0.8413 0.5405 11.5502 79.2211)" class="st1" width="1.6" height="161.7"/>
				
					<rect x="74.6" y="-46.8" transform="matrix(0.4793 -0.8776 0.8776 0.4793 9.3892 83.8537)" class="st1" width="1.6" height="161.7"/>
				
					<rect x="72" y="-41.7" transform="matrix(0.4153 -0.9097 0.9097 0.4153 6.922 89.0989)" class="st1" width="1.6" height="161.7"/>
				
					<rect x="69.8" y="-36.3" transform="matrix(0.3494 -0.937 0.937 0.3494 4.2251 95.079)" class="st1" width="1.6" height="161.7"/>
				
					<rect x="67.9" y="-30.9" transform="matrix(0.2817 -0.9595 0.9595 0.2817 1.4356 101.858)" class="st1" width="1.6" height="161.7"/>
				
					<rect x="66.5" y="-25.3" transform="matrix(0.2127 -0.9771 0.9771 0.2127 -1.2937 109.5311)" class="st1" width="1.6" height="161.7"/>
				
					<rect x="65.5" y="-19.6" transform="matrix(0.1423 -0.9898 0.9898 0.1423 -3.7531 118.1462)" class="st1" width="1.6" height="161.7"/>
				
					<rect x="64.9" y="-13.9" transform="matrix(7.132329e-02 -0.9975 0.9975 7.132329e-02 -5.8198 127.7189)" class="st1" width="1.6" height="161.7"/>
				<rect x="-15.4" y="71.9" class="st1" width="161.7" height="1.6"/>
				
					<rect x="-15.2" y="77.7" transform="matrix(0.9975 -7.132336e-02 7.132336e-02 0.9975 -5.4327 4.8843)" class="st1" width="161.7" height="1.6"/>
				
					<rect x="-14.5" y="83.5" transform="matrix(0.9898 -0.1423 0.1423 0.9898 -11.3144 10.2891)" class="st1" width="161.7" height="1.6"/>
				
					<rect x="-13.5" y="89.1" transform="matrix(0.9772 -0.2125 0.2125 0.9772 -17.5736 16.3608)" class="st1" width="161.7" height="1.6"/>
				
					<rect x="-12.1" y="94.7" transform="matrix(0.9595 -0.2817 0.2817 0.9595 -24.1261 23.2329)" class="st1" width="161.7" height="1.6"/>
				
					<rect x="-10.3" y="100.2" transform="matrix(0.937 -0.3494 0.3494 0.937 -30.8434 31.0206)" class="st1" width="161.7" height="1.6"/>
				
					<rect x="-8.1" y="105.5" transform="matrix(0.9096 -0.4155 0.4155 0.9096 -37.5934 39.8519)" class="st1" width="161.7" height="1.6"/>
				
					<rect x="-5.5" y="110.7" transform="matrix(0.8776 -0.4793 0.4793 0.8776 -44.2093 49.7653)" class="st1" width="161.7" height="1.6"/>
				
					<rect x="-2.5" y="115.6" transform="matrix(0.8412 -0.5407 0.5407 0.8412 -50.5259 60.8257)" class="st1" width="161.7" height="1.6"/>
				<rect x="0.8" y="120.3" transform="matrix(0.8 -0.6 0.6 0.8 -56.311 73.197)" class="st1" width="161.7" height="1.6"/>
				
					<rect x="4.4" y="124.9" transform="matrix(0.7557 -0.6549 0.6549 0.7557 -61.4846 86.5121)" class="st1" width="161.7" height="1.6"/>
				
					<rect x="8.3" y="129.1" transform="matrix(0.7071 -0.7071 0.7071 0.7071 -65.7397 101.0865)" class="st1" width="161.7" height="1.6"/>
				
					<rect x="12.5" y="133" transform="matrix(0.6549 -0.7557 0.7557 0.6549 -68.922 116.7607)" class="st1" width="161.7" height="1.6"/>
				<rect x="17" y="136.8" transform="matrix(0.6 -0.8 0.8 0.6 -70.9484 133.3312)" class="st1" width="161.7" height="1.6"/>
				
					<rect x="21.8" y="139.9" transform="matrix(0.5407 -0.8412 0.8412 0.5407 -71.2825 150.9617)" class="st1" width="161.7" height="1.6"/>
				
					<rect x="26.7" y="142.9" transform="matrix(0.4793 -0.8776 0.8776 0.4793 -70.1047 169.2423)" class="st1" width="161.7" height="1.6"/>
				
					<rect x="31.9" y="145.5" transform="matrix(0.4155 -0.9096 0.9096 0.4155 -67.1639 188.0494)" class="st1" width="161.7" height="1.6"/>
				
					<rect x="37.2" y="147.7" transform="matrix(0.3494 -0.937 0.937 0.3494 -62.2973 207.2158)" class="st1" width="161.7" height="1.6"/>
				<rect x="42.6" y="149.2" transform="matrix(0.28 -0.96 0.96 0.28 -55.1378 226.4494)" class="st1" width="161.7" height="1.6"/>
				
					<rect x="48.3" y="150.9" transform="matrix(0.2125 -0.9772 0.9772 0.2125 -46.5727 245.6541)" class="st1" width="161.7" height="1.6"/>
				
					<rect x="54" y="151.9" transform="matrix(0.1423 -0.9898 0.9898 0.1423 -35.5806 264.4426)" class="st1" width="161.7" height="1.6"/>
				
					<rect x="59.7" y="152.6" transform="matrix(7.132329e-02 -0.9975 0.9975 7.132329e-02 -22.4624 282.6191)" class="st1" width="161.7" height="1.6"/>
				<rect x="145.5" y="72.8" class="st1" width="1.6" height="161.7"/>
				
					<rect x="151.3" y="72.5" transform="matrix(0.9975 -7.132336e-02 7.132336e-02 0.9975 -10.5521 11.2369)" class="st1" width="1.6" height="161.7"/>
				
					<rect x="157" y="71.9" transform="matrix(0.9898 -0.1423 0.1423 0.9898 -20.1322 24.0067)" class="st1" width="1.6" height="161.7"/>
				
					<rect x="162.7" y="70.9" transform="matrix(0.9772 -0.2125 0.2125 0.9772 -28.512 38.209)" class="st1" width="1.6" height="161.7"/>
				
					<rect x="168.3" y="69.5" transform="matrix(0.9595 -0.2817 0.2817 0.9595 -35.4963 53.7097)" class="st1" width="1.6" height="161.7"/>
				
					<rect x="173.7" y="67.7" transform="matrix(0.937 -0.3494 0.3494 0.937 -40.8831 70.344)" class="st1" width="1.6" height="161.7"/>
				
					<rect x="179.1" y="65.5" transform="matrix(0.9097 -0.4153 0.4153 0.9097 -44.5127 87.9271)" class="st1" width="1.6" height="161.7"/>
				
					<rect x="184.2" y="62.8" transform="matrix(0.8776 -0.4793 0.4793 0.8776 -46.2243 106.2758)" class="st1" width="1.6" height="161.7"/>
				
					<rect x="188.9" y="60" transform="matrix(0.8412 -0.5408 0.5408 0.8412 -45.9523 124.9186)" class="st1" width="1.6" height="161.4"/>
				
					<rect x="193.9" y="56.6" transform="matrix(0.8005 -0.5993 0.5993 0.8005 -43.5246 144.1353)" class="st1" width="1.6" height="161.7"/>
				
					<rect x="198.4" y="53" transform="matrix(0.7557 -0.6549 0.6549 0.7557 -38.9707 163.1683)" class="st1" width="1.6" height="161.7"/>
				
					<rect x="202.7" y="49.1" transform="matrix(0.7071 -0.7071 0.7071 0.7071 -32.273 181.9294)" class="st1" width="1.6" height="161.7"/>
				
					<rect x="206.6" y="44.9" transform="matrix(0.6549 -0.7557 0.7557 0.6549 -23.4131 200.1262)" class="st1" width="1.6" height="161.7"/>
				
					<rect x="210.2" y="40.4" transform="matrix(0.5992 -0.8006 0.8006 0.5992 -12.4423 217.5225)" class="st1" width="1.6" height="161.7"/>
				
					<rect x="213.5" y="35.6" transform="matrix(0.5405 -0.8413 0.8413 0.5405 0.5002 233.8042)" class="st1" width="1.6" height="161.7"/>
				
					<rect x="216.5" y="30.7" transform="matrix(0.4793 -0.8776 0.8776 0.4793 15.2703 248.7429)" class="st1" width="1.6" height="161.7"/>
				
					<rect x="219" y="25.5" transform="matrix(0.4155 -0.9096 0.9096 0.4155 31.7882 262.117)" class="st1" width="1.6" height="161.7"/>
				
					<rect x="221.2" y="20.1" transform="matrix(0.3496 -0.9369 0.9369 0.3496 49.8095 273.7083)" class="st1" width="1.6" height="161.7"/>
				
					<rect x="223" y="14.7" transform="matrix(0.2817 -0.9595 0.9595 0.2817 69.1576 283.3997)" class="st1" width="1.6" height="161.7"/>
				
					<rect x="224.5" y="9.1" transform="matrix(0.2123 -0.9772 0.9772 0.2123 89.5818 290.9704)" class="st1" width="1.6" height="161.7"/>
				
					<rect x="225.5" y="3.4" transform="matrix(0.1421 -0.9899 0.9899 0.1421 110.7641 296.303)" class="st1" width="1.6" height="161.7"/>
				
					<rect x="226.1" y="-2.3" transform="matrix(7.132329e-02 -0.9975 0.9975 7.132329e-02 132.447 299.2716)" class="st1" width="1.6" height="161.7"/>
			</g>
		</g>
		<g>
			<defs>
				<path id="SVGID_00000055699999561676061950000005166560142188201601_" d="M48.5,72.8c0,26.8,21.7,48.5,48.5,48.5
					s48.5-21.7,48.5-48.5c0,13.4-10.9,24.2-24.2,24.2S97,86.1,97,72.8s10.9-24.2,24.2-24.2s24.2,10.9,24.2,24.2
					c0-26.8-21.7-48.5-48.5-48.5S48.5,46,48.5,72.8z"/>
			</defs>
			<clipPath id="SVGID_00000131356602983317398920000004013601168963783304_">
				<use xlink:href="#SVGID_00000055699999561676061950000005166560142188201601_"  style="overflow:visible;"/>
			</clipPath>
			<g style="clip-path:url(#SVGID_00000131356602983317398920000004013601168963783304_);">
				<rect x="146.3" y="72.5" class="st1" width="161.7" height="0.4"/>
				
					<rect x="146.1" y="66.8" transform="matrix(0.9975 -7.132336e-02 7.132336e-02 0.9975 -4.1996 16.3563)" class="st1" width="161.7" height="0.4"/>
				
					<rect x="145.5" y="61" transform="matrix(0.9898 -0.1423 0.1423 0.9898 -6.4114 32.8255)" class="st1" width="161.7" height="0.4"/>
				
					<rect x="144.5" y="55.4" transform="matrix(0.9772 -0.2125 0.2125 0.9772 -6.6656 49.1498)" class="st1" width="161.7" height="0.4"/>
				
					<rect x="143" y="49.8" transform="matrix(0.9595 -0.2817 0.2817 0.9595 -5.0139 65.0804)" class="st1" width="161.7" height="0.4"/>
				
					<rect x="141.2" y="44.3" transform="matrix(0.937 -0.3494 0.3494 0.937 -1.5591 80.3871)" class="st1" width="161.7" height="0.4"/>
				<rect x="139" y="39" transform="matrix(0.9096 -0.4155 0.4155 0.9096 3.606 94.8743)" class="st1" width="161.7" height="0.4"/>
				
					<rect x="136.4" y="33.8" transform="matrix(0.8776 -0.4793 0.4793 0.8776 10.285 108.286)" class="st1" width="161.7" height="0.4"/>
				
					<rect x="133.5" y="28.8" transform="matrix(0.8412 -0.5407 0.5407 0.8412 18.3287 120.4798)" class="st1" width="161.7" height="0.4"/>
				<rect x="130.1" y="23.9" transform="matrix(0.8 -0.6 0.6 0.8 27.7054 131.3822)" class="st1" width="161.7" height="0.4"/>
				
					<rect x="126.6" y="19.6" transform="matrix(0.7557 -0.6549 0.6549 0.7557 37.6881 140.6511)" class="st1" width="161.7" height="0.4"/>
				
					<rect x="122.6" y="15.4" transform="matrix(0.7071 -0.7071 0.7071 0.7071 48.5682 148.4386)" class="st1" width="161.7" height="0.4"/>
				
					<rect x="118.4" y="11.5" transform="matrix(0.6549 -0.7557 0.7557 0.6549 59.953 154.5987)" class="st1" width="161.7" height="0.4"/>
				
					<rect x="113.9" y="7.8" transform="matrix(0.5993 -0.8005 0.8005 0.5993 71.6068 159.1232)" class="st1" width="161.7" height="0.4"/>
				
					<rect x="109.2" y="4.5" transform="matrix(0.5407 -0.8412 0.8412 0.5407 83.292 162.0311)" class="st1" width="161.7" height="0.4"/>
				
					<rect x="104.2" y="1.6" transform="matrix(0.4793 -0.8776 0.8776 0.4793 94.7691 163.3528)" class="st1" width="161.7" height="0.4"/>
				
					<rect x="99.1" y="-1" transform="matrix(0.4155 -0.9096 0.9096 0.4155 105.8611 163.1829)" class="st1" width="161.7" height="0.4"/>
				
					<rect x="93.7" y="-3.2" transform="matrix(0.3494 -0.937 0.937 0.3494 116.3648 161.5854)" class="st1" width="161.7" height="0.4"/>
				
					<rect x="88.2" y="-5" transform="matrix(0.2817 -0.9595 0.9595 0.2817 126.0675 158.7678)" class="st1" width="161.7" height="0.4"/>
				
					<rect x="82.6" y="-6.4" transform="matrix(0.2125 -0.9772 0.9772 0.2125 134.8398 154.825)" class="st1" width="161.7" height="0.4"/>
				
					<rect x="77" y="-7.5" transform="matrix(0.1423 -0.9898 0.9898 0.1423 142.5433 149.9737)" class="st1" width="161.7" height="0.4"/>
				
					<rect x="70.8" y="-8.5" transform="matrix(6.982913e-02 -0.9976 0.9976 6.982913e-02 149.4785 143.7945)" class="st1" width="162.1" height="0.4"/>
				<rect x="146.1" y="-88.9" class="st1" width="0.4" height="161.7"/>
				
					<rect x="140.3" y="-88.7" transform="matrix(0.9975 -7.132336e-02 7.132336e-02 0.9975 0.9199 10.0037)" class="st1" width="0.4" height="161.7"/>
				
					<rect x="134.6" y="-88.1" transform="matrix(0.9899 -0.1421 0.1421 0.9899 2.401 19.0829)" class="st1" width="0.4" height="161.7"/>
				
					<rect x="128.9" y="-87.1" transform="matrix(0.9772 -0.2123 0.2123 0.9772 4.27 27.2763)" class="st1" width="0.4" height="161.7"/>
				
					<rect x="123.3" y="-85.6" transform="matrix(0.9595 -0.2817 0.2817 0.9595 6.3525 34.6021)" class="st1" width="0.4" height="161.7"/>
				
					<rect x="117.9" y="-83.8" transform="matrix(0.9369 -0.3497 0.3497 0.9369 8.4985 41.0996)" class="st1" width="0.4" height="161.7"/>
				
					<rect x="112.5" y="-81.6" transform="matrix(0.9095 -0.4156 0.4156 0.9095 10.5193 46.7855)" class="st1" width="0.4" height="161.7"/>
				
					<rect x="107.4" y="-79" transform="matrix(0.8778 -0.479 0.479 0.8778 12.2807 51.7414)" class="st1" width="0.4" height="161.7"/>
				
					<rect x="102.4" y="-76.1" transform="matrix(0.8411 -0.5408 0.5408 0.8411 13.7307 56.2447)" class="st1" width="0.4" height="161.7"/>
				
					<rect x="97.7" y="-72.8" transform="matrix(0.8007 -0.599 0.599 0.8007 14.6792 60.2301)" class="st1" width="0.4" height="161.7"/>
				
					<rect x="93.2" y="-69.2" transform="matrix(0.7559 -0.6547 0.6547 0.7559 15.1595 63.9819)" class="st1" width="0.4" height="161.7"/>
				
					<rect x="88.9" y="-65.2" transform="matrix(0.7071 -0.7071 0.7071 0.7071 15.0873 67.6015)" class="st1" width="0.4" height="161.7"/>
				<rect x="85" y="-61" transform="matrix(0.655 -0.7556 0.7556 0.655 14.433 71.2209)" class="st1" width="0.4" height="161.7"/>
				
					<rect x="81.4" y="-56.5" transform="matrix(0.5994 -0.8004 0.8004 0.5994 13.2329 75.0455)" class="st1" width="0.4" height="161.7"/>
				
					<rect x="78.1" y="-51.8" transform="matrix(0.5408 -0.8411 0.8411 0.5408 11.5192 79.1965)" class="st1" width="0.4" height="161.7"/>
				
					<rect x="75.2" y="-46.8" transform="matrix(0.4795 -0.8776 0.8776 0.4795 9.3785 83.8418)" class="st1" width="0.4" height="161.7"/>
				
					<rect x="72.6" y="-41.7" transform="matrix(0.4152 -0.9097 0.9097 0.4152 6.9295 89.1256)" class="st1" width="0.4" height="161.7"/>
				
					<rect x="70.4" y="-36.3" transform="matrix(0.3496 -0.9369 0.9369 0.3496 4.214 95.0673)" class="st1" width="0.4" height="161.7"/>
				
					<rect x="68.5" y="-30.9" transform="matrix(0.2817 -0.9595 0.9595 0.2817 1.4356 101.858)" class="st1" width="0.4" height="161.7"/>
				
					<rect x="67.1" y="-25.3" transform="matrix(0.2129 -0.9771 0.9771 0.2129 -1.3036 109.5025)" class="st1" width="0.4" height="161.7"/>
				
					<rect x="65.9" y="-19.8" transform="matrix(0.14 -0.9901 0.9901 0.14 -3.5914 117.9996)" class="st1" width="0.4" height="161.6"/>
				
					<rect x="65.5" y="-13.9" transform="matrix(7.132329e-02 -0.9975 0.9975 7.132329e-02 -5.8198 127.7189)" class="st1" width="0.4" height="161.7"/>
				<rect x="-15.4" y="72.5" class="st1" width="161.7" height="0.4"/>
				
					<rect x="-15.2" y="78.3" transform="matrix(0.9975 -7.132336e-02 7.132336e-02 0.9975 -5.432 4.8843)" class="st1" width="161.7" height="0.4"/>
				
					<rect x="-14.5" y="84.1" transform="matrix(0.9898 -0.1423 0.1423 0.9898 -11.313 10.2888)" class="st1" width="161.7" height="0.4"/>
				
					<rect x="-13.5" y="89.7" transform="matrix(0.9772 -0.2125 0.2125 0.9772 -17.5736 16.3608)" class="st1" width="161.7" height="0.4"/>
				
					<rect x="-12.1" y="95.3" transform="matrix(0.9595 -0.2817 0.2817 0.9595 -24.1235 23.2317)" class="st1" width="161.7" height="0.4"/>
				
					<rect x="-10.3" y="100.8" transform="matrix(0.937 -0.3494 0.3494 0.937 -30.8434 31.0206)" class="st1" width="161.7" height="0.4"/>
				
					<rect x="-8.1" y="106.1" transform="matrix(0.9096 -0.4155 0.4155 0.9096 -37.5934 39.8519)" class="st1" width="161.7" height="0.4"/>
				
					<rect x="-5.5" y="111.3" transform="matrix(0.8776 -0.4793 0.4793 0.8776 -44.2093 49.7653)" class="st1" width="161.7" height="0.4"/>
				
					<rect x="-2.5" y="116.2" transform="matrix(0.8412 -0.5407 0.5407 0.8412 -50.5259 60.8257)" class="st1" width="161.7" height="0.4"/>
				
					<rect x="0.8" y="121" transform="matrix(0.8005 -0.5993 0.5993 0.8005 -56.3496 73.0758)" class="st1" width="161.7" height="0.4"/>
				
					<rect x="4.4" y="125.5" transform="matrix(0.7557 -0.6549 0.6549 0.7557 -61.4812 86.5059)" class="st1" width="161.7" height="0.4"/>
				
					<rect x="8.3" y="129.7" transform="matrix(0.7071 -0.7071 0.7071 0.7071 -65.7397 101.0865)" class="st1" width="161.7" height="0.4"/>
				
					<rect x="12.5" y="133.6" transform="matrix(0.6549 -0.7557 0.7557 0.6549 -68.922 116.7607)" class="st1" width="161.7" height="0.4"/>
				<rect x="17" y="137.4" transform="matrix(0.6 -0.8 0.8 0.6 -70.9484 133.3312)" class="st1" width="161.7" height="0.4"/>
				
					<rect x="21.8" y="140.6" transform="matrix(0.5407 -0.8412 0.8412 0.5407 -71.2825 150.9617)" class="st1" width="161.7" height="0.4"/>
				
					<rect x="26.7" y="143.5" transform="matrix(0.4793 -0.8776 0.8776 0.4793 -70.1051 169.2321)" class="st1" width="161.7" height="0.4"/>
				
					<rect x="31.9" y="146.1" transform="matrix(0.4155 -0.9096 0.9096 0.4155 -67.1639 188.0494)" class="st1" width="161.7" height="0.4"/>
				
					<rect x="37.2" y="148.3" transform="matrix(0.3494 -0.937 0.937 0.3494 -62.3001 207.2048)" class="st1" width="161.7" height="0.4"/>
				
					<rect x="42.7" y="150.1" transform="matrix(0.2817 -0.9595 0.9595 0.2817 -55.4742 226.4898)" class="st1" width="161.7" height="0.4"/>
				
					<rect x="48.3" y="151.5" transform="matrix(0.2125 -0.9772 0.9772 0.2125 -46.5783 245.6428)" class="st1" width="161.7" height="0.4"/>
				
					<rect x="54" y="152.6" transform="matrix(0.1423 -0.9898 0.9898 0.1423 -35.5806 264.4426)" class="st1" width="161.7" height="0.4"/>
				
					<rect x="59.7" y="153.2" transform="matrix(7.132329e-02 -0.9975 0.9975 7.132329e-02 -22.4624 282.619)" class="st1" width="161.7" height="0.4"/>
				<rect x="146.1" y="72.8" class="st1" width="0.4" height="161.7"/>
				
					<rect x="151.9" y="72.5" transform="matrix(0.9975 -7.132336e-02 7.132336e-02 0.9975 -10.5514 11.2369)" class="st1" width="0.4" height="161.7"/>
				
					<rect x="157.6" y="71.9" transform="matrix(0.9899 -0.1421 0.1421 0.9899 -20.1054 23.9779)" class="st1" width="0.4" height="161.7"/>
				
					<rect x="163.3" y="70.9" transform="matrix(0.9772 -0.2123 0.2123 0.9772 -28.4905 38.1776)" class="st1" width="0.4" height="161.7"/>
				
					<rect x="168.9" y="69.5" transform="matrix(0.9595 -0.2817 0.2817 0.9595 -35.4903 53.7117)" class="st1" width="0.4" height="161.7"/>
				
					<rect x="174.3" y="67.7" transform="matrix(0.9369 -0.3497 0.3497 0.9369 -40.9064 70.4177)" class="st1" width="0.4" height="161.7"/>
				
					<rect x="179.7" y="65.5" transform="matrix(0.9095 -0.4156 0.4156 0.9095 -44.5296 88.0048)" class="st1" width="0.4" height="161.7"/>
				
					<rect x="184.8" y="62.8" transform="matrix(0.8778 -0.479 0.479 0.8778 -46.2119 106.1937)" class="st1" width="0.4" height="161.7"/>
				
					<rect x="189.8" y="59.9" transform="matrix(0.8411 -0.5408 0.5408 0.8411 -45.9253 125.119)" class="st1" width="0.4" height="161.7"/>
				
					<rect x="194.5" y="56.6" transform="matrix(0.8007 -0.599 0.599 0.8007 -43.5424 144.0522)" class="st1" width="0.4" height="161.7"/>
				
					<rect x="199" y="53" transform="matrix(0.7559 -0.6547 0.6547 0.7559 -38.9911 163.1288)" class="st1" width="0.4" height="161.7"/>
				
					<rect x="203.3" y="49.1" transform="matrix(0.7071 -0.7071 0.7071 0.7071 -32.2689 181.9135)" class="st1" width="0.4" height="161.7"/>
				
					<rect x="207.2" y="44.8" transform="matrix(0.6545 -0.7561 0.7561 0.6545 -23.3614 200.233)" class="st1" width="0.4" height="161.7"/>
				
					<rect x="210.8" y="40.3" transform="matrix(0.5994 -0.8004 0.8004 0.5994 -12.4689 217.4346)" class="st1" width="0.4" height="161.7"/>
				
					<rect x="214.1" y="35.6" transform="matrix(0.5408 -0.8411 0.8411 0.5408 0.4596 233.7195)" class="st1" width="0.4" height="161.7"/>
				
					<rect x="217.1" y="30.7" transform="matrix(0.4787 -0.878 0.878 0.4787 15.3625 248.8734)" class="st1" width="0.4" height="161.7"/>
				
					<rect x="219.7" y="25.5" transform="matrix(0.416 -0.9094 0.9094 0.416 31.6859 262.0413)" class="st1" width="0.4" height="161.7"/>
				
					<rect x="221.8" y="20.2" transform="matrix(0.3496 -0.9369 0.9369 0.3496 49.7956 273.727)" class="st1" width="0.4" height="161.7"/>
				
					<rect x="223.7" y="14.7" transform="matrix(0.2813 -0.9596 0.9596 0.2813 69.2254 283.4886)" class="st1" width="0.4" height="161.7"/>
				
					<rect x="225.1" y="9.1" transform="matrix(0.2129 -0.9771 0.9771 0.2129 89.4684 290.9109)" class="st1" width="0.4" height="161.7"/>
				
					<rect x="225.6" y="3.2" transform="matrix(0.14 -0.9901 0.9901 0.14 110.9949 295.7533)" class="st1" width="0.4" height="161.6"/>
				
					<rect x="226.7" y="-2.3" transform="matrix(7.219376e-02 -0.9974 0.9974 7.219376e-02 132.235 299.1734)" class="st1" width="0.4" height="161.7"/>
			</g>
		</g>
		<path class="st1" d="M376.8,37.8v-8h-6v-16l-8,8v34c0,3.3,2.7,6,6,6h8v-8h-4c-1.1,0-2-0.9-2-2v-14H376.8z"/>
		<path class="st1" d="M230.8,37.8v-8h-6v-16l-8,8v34c0,3.3,2.7,6,6,6h8v-8h-4c-1.1,0-2-0.9-2-2v-14H230.8z"/>
		<path class="st1" d="M314.8,37.4c2.7-6.4,10-9.3,16.4-6.6c4.6,2,7.6,6.5,7.6,11.5v19.5h-8v-16c0-4.4-3.6-8-8-8s-8,3.6-8,8v16h-8
			v-32h8V37.4z"/>
		<path class="st1" d="M286.8,29.8v6c0-3.3,2.7-6,6-6h6v8h-4c-4.4,0-8,3.6-8,8v16h-8v-32L286.8,29.8z"/>
		<rect x="178.8" y="21.8" class="st1" width="30" height="8"/>
		<polygon class="st3" points="186.8,45.8 202.8,45.8 202.8,37.8 178.8,37.8 178.8,38 178.8,45.8 178.8,46 178.8,53.8 178.8,61.8 
			186.8,61.8 208.8,61.8 208.8,53.8 186.8,53.8 		"/>
		<rect x="346.8" y="30.8" class="st1" width="8" height="31"/>
		<polygon class="st3" points="408.8,29.8 399.1,53.8 389.5,29.8 380.8,29.8 394.8,61.8 389.7,73.5 398.4,73.5 417.5,29.8 		"/>
		<path class="st1" d="M270.5,48.8c0.2-1,0.3-2,0.3-3c0-8.8-7.1-16-16-16c-8.8,0-16,7.1-16,16s7.1,16,16,16c4.5,0,8.8-1.9,11.8-5.2
			l-4.2-4.2c-3.6,4.2-9.9,4.6-14.1,1c-1.4-1.2-2.4-2.8-3-4.5L270.5,48.8L270.5,48.8z M254.7,35.8c4.4,0,8.2,2.8,9.5,7h-19.1
			C246.5,38.7,250.4,35.8,254.7,35.8L254.7,35.8z"/>
		<path class="st1" d="M194.5,121.7c-1.6-3.3-3.1-6.8-4.6-10.5s-3-7.2-4.4-10.7c-1.4-3.5-2.6-6.9-3.8-10.2c-1.2-3.2-2.1-6.1-3-8.7
			h9.8c0.7,2.3,1.6,4.8,2.5,7.5s1.8,5.3,2.8,8s1.8,5.2,2.7,7.6s1.7,4.5,2.5,6.3c0.7-1.8,1.6-3.9,2.4-6.3s1.8-5,2.7-7.6
			c0.9-2.7,1.9-5.3,2.8-8s1.7-5.2,2.5-7.5h9.4c-0.9,2.6-1.9,5.4-3.1,8.7c-1.2,3.2-2.4,6.6-3.8,10.2c-1.4,3.5-2.8,7.1-4.3,10.7
			s-3,7.1-4.6,10.4H194.5z"/>
		<path class="st1" d="M428.9,114.7c1.2,0.1,2.3-0.1,3.4-0.5c0.7-0.3,1.1-1,1-1.8c-0.1-0.8-0.6-1.5-1.3-1.8c-1.3-0.7-2.6-1.3-4-1.8
			c-1.3-0.5-2.5-1-3.8-1.6c-1.1-0.5-2-1.1-2.9-1.9c-0.8-0.8-1.4-1.7-1.8-2.7c-0.5-1.2-0.7-2.5-0.6-3.8c-0.1-2.7,1.1-5.2,3.2-6.8
			c2.2-1.7,5.2-2.5,9-2.5c1.8,0,3.7,0.2,5.5,0.5c1.4,0.2,2.8,0.6,4.1,1.1l-1.5,6.7c-1.1-0.4-2.2-0.7-3.4-0.9
			c-1.3-0.3-2.7-0.4-4.1-0.4c-2.8,0-4.1,0.8-4.1,2.2c0,0.3,0.1,0.6,0.2,0.9c0.2,0.3,0.4,0.6,0.7,0.8c0.5,0.3,0.9,0.6,1.5,0.8
			c0.6,0.3,1.4,0.6,2.3,1c1.6,0.6,3.3,1.3,4.8,2.1c1.1,0.6,2.1,1.3,3,2.2c0.7,0.7,1.2,1.6,1.5,2.6c0.3,1.1,0.5,2.2,0.5,3.3
			c0.1,2.7-1.2,5.3-3.5,6.8c-2.3,1.5-5.6,2.3-9.8,2.3c-2.3,0-4.6-0.2-6.9-0.7c-1.3-0.3-2.6-0.7-3.8-1.2l1.5-7c1.5,0.6,3,1,4.6,1.4
			C425.8,114.5,427.3,114.7,428.9,114.7z"/>
		<path class="st1" d="M368.1,89.7v6c0-3.3,2.7-6,6-6h4v8h-2c-4.4,0-8,3.6-8,8v16h-8v-32H368.1z"/>
		<path class="st1" d="M312.1,97.7v-8h-6v-16l-8,8v34c0,3.3,2.7,6,6,6l0,0h8v-8h-4c-1.1,0-2-0.9-2-2v-14H312.1z"/>
		<path class="st1" d="M266.1,97.3c2.7-6.4,10-9.3,16.4-6.6c4.6,2,7.6,6.5,7.6,11.5v19.5h-8v-16c0-4.4-3.6-8-8-8s-8,3.6-8,8v16h-8
			V90h8V97.3z"/>
		<path class="st1" d="M344.1,114.1c-2.7,6.4-10,9.3-16.4,6.6c-4.6-2-7.6-6.5-7.6-11.5V89.7h8v16c0,4.4,3.6,8,8,8s8-3.6,8-8v-16h8
			v32h-8V114.1z"/>
		<path class="st1" d="M250.5,108.7c0.2-1,0.3-2,0.3-3c0-8.8-7.1-16-16-16s-16,7.1-16,16s7.1,16,16,16c4.5,0,8.8-1.9,11.8-5.2
			l-4.2-4.2c-3.6,4.2-9.9,4.6-14.1,1c-1.4-1.2-2.4-2.8-3-4.5H250.5L250.5,108.7z M234.8,95.7c4.4,0,8.2,2.8,9.5,7h-19.1
			C226.5,98.5,230.4,95.7,234.8,95.7z"/>
		<path class="st1" d="M413.9,108.7c0.2-1,0.3-2,0.3-3c0-8.8-7.1-16-16-16c-8.8,0-16,7.1-16,16c0,8.8,7.1,16,16,16
			c4.5,0,8.8-1.9,11.8-5.2l-4.2-4.2c-3.6,4.2-9.9,4.6-14.1,1c-1.4-1.2-2.4-2.8-3-4.5H413.9L413.9,108.7z M398.1,95.7
			c4.4,0,8.2,2.8,9.5,7h-19.1C389.9,98.5,393.8,95.7,398.1,95.7z"/>
		<circle class="st4" cx="350.8" cy="21.8" r="5"/>
	</g>
</g>
</svg>
